<svg width="322.000000" height="30.000000" viewBox="0 0 322 30" fill="none" xmlns="http://www.w3.org/2000/svg" xmlns:xlink="http://www.w3.org/1999/xlink">
	<desc>
			Created with Pixso.
	</desc>
	<defs>
		<clipPath id="clip1_635">
			<rect id="IMAGE" width="322.000000" height="30.000000" fill="white" fill-opacity="0"/>
		</clipPath>
	</defs>
	<g clip-path="url(#clip1_635)">
		<path id="Vector" d="M26.6719 29L3.50781 29C3.14323 29 2.80469 28.9351 2.49219 28.8047C2.17969 28.6743 1.90625 28.4985 1.67188 28.2773C1.45052 28.043 1.27473 27.7695 1.14453 27.457C1.01431 27.1445 0.949219 26.8062 0.949219 26.4414L0.949219 0.992188L6.02734 0.992188L6.02734 23.9219L26.6719 23.9219L26.6719 29Z" fill="#FFFFFF" fill-opacity="1.000000" fill-rule="nonzero"/>
		<path id="Vector" d="M59.3672 17.6719C59.3672 19.3774 59.0742 20.9468 58.4883 22.3789C57.9023 23.811 57.0885 25.0483 56.0469 26.0898C55.0052 27.1313 53.7682 27.9453 52.3359 28.5312C50.9167 29.104 49.3672 29.3906 47.6875 29.3906L40.8125 29.3906C39.1328 29.3906 37.5768 29.104 36.1445 28.5312C34.7122 27.9453 33.4753 27.1313 32.4336 26.0898C31.3919 25.0483 30.5716 23.811 29.9727 22.3789C29.3867 20.9468 29.0938 19.3774 29.0938 17.6719L29.0938 12.3203C29.0938 10.6274 29.3867 9.06494 29.9727 7.63281C30.5716 6.1875 31.3919 4.95068 32.4336 3.92188C33.4753 2.88037 34.7122 2.06641 36.1445 1.48047C37.5768 0.894531 39.1328 0.601562 40.8125 0.601562L47.6875 0.601562C49.3672 0.601562 50.9167 0.894531 52.3359 1.48047C53.7682 2.06641 55.0052 2.88037 56.0469 3.92188C57.0885 4.95068 57.9023 6.1875 58.4883 7.63281C59.0742 9.06494 59.3672 10.6274 59.3672 12.3203L59.3672 17.6719ZM54.2891 12.3203C54.2891 11.3179 54.1263 10.4126 53.8008 9.60547C53.4883 8.78516 53.0391 8.08838 52.4531 7.51562C51.8802 6.92969 51.1836 6.48047 50.3633 6.16797C49.556 5.84229 48.6641 5.67969 47.6875 5.67969L40.8125 5.67969C39.8229 5.67969 38.918 5.84229 38.0977 6.16797C37.2904 6.48047 36.5938 6.92969 36.0078 7.51562C35.4219 8.08838 34.9661 8.78516 34.6406 9.60547C34.3281 10.4126 34.1719 11.3179 34.1719 12.3203L34.1719 17.6719C34.1719 18.6743 34.3281 19.5859 34.6406 20.4062C34.9661 21.2134 35.4219 21.9102 36.0078 22.4961C36.5938 23.0688 37.2904 23.5181 38.0977 23.8438C38.918 24.1562 39.8229 24.3125 40.8125 24.3125L47.6484 24.3125C48.638 24.3125 49.5365 24.1562 50.3438 23.8438C51.1641 23.5181 51.8672 23.0688 52.4531 22.4961C53.0391 21.9102 53.4883 21.2134 53.8008 20.4062C54.1263 19.5859 54.2891 18.6743 54.2891 17.6719L54.2891 12.3203Z" fill="#FFFFFF" fill-opacity="1.000000" fill-rule="nonzero"/>
		<path id="Vector" d="M92.0234 26.4414C92.0234 26.8062 91.9583 27.1445 91.8281 27.457C91.6979 27.7695 91.5156 28.043 91.2812 28.2773C91.0599 28.4985 90.793 28.6743 90.4805 28.8047C90.168 28.9351 89.8294 29 89.4648 29L71.1445 29C70.6758 29 70.168 28.9478 69.6211 28.8438C69.0872 28.7266 68.5534 28.5508 68.0195 28.3164C67.4987 28.082 66.9974 27.7827 66.5156 27.418C66.0339 27.0405 65.6042 26.5913 65.2266 26.0703C64.862 25.5366 64.569 24.9243 64.3477 24.2344C64.1263 23.5312 64.0156 22.7437 64.0156 21.8711L64.0156 8.12109C64.0156 7.65234 64.0677 7.15088 64.1719 6.61719C64.2891 6.07031 64.4648 5.53662 64.6992 5.01562C64.9336 4.48193 65.2396 3.97412 65.6172 3.49219C65.9948 3.01025 66.444 2.5874 66.9648 2.22266C67.4987 1.84521 68.1107 1.54541 68.8008 1.32422C69.4909 1.10303 70.2721 0.992188 71.1445 0.992188L91.7891 0.992188L91.7891 6.07031L71.1445 6.07031C70.4805 6.07031 69.9727 6.24609 69.6211 6.59766C69.2695 6.94922 69.0938 7.47021 69.0938 8.16016L69.0938 21.8711C69.0938 22.522 69.2695 23.0298 69.6211 23.3945C69.9857 23.7461 70.4935 23.9219 71.1445 23.9219L86.9453 23.9219L86.9453 17.5547L73.4297 17.5547L73.4297 12.4375L89.4648 12.4375C89.8294 12.4375 90.168 12.5093 90.4805 12.6523C90.793 12.7827 91.0599 12.9648 91.2812 13.1992C91.5156 13.4336 91.6979 13.707 91.8281 14.0195C91.9583 14.3188 92.0234 14.6445 92.0234 14.9961L92.0234 26.4414Z" fill="#FFFFFF" fill-opacity="1.000000" fill-rule="nonzero"/>
		<path id="Vector" d="M126.711 17.6719C126.711 19.3774 126.418 20.9468 125.832 22.3789C125.246 23.811 124.432 25.0483 123.391 26.0898C122.349 27.1313 121.112 27.9453 119.68 28.5312C118.26 29.104 116.711 29.3906 115.031 29.3906L108.156 29.3906C106.477 29.3906 104.921 29.104 103.488 28.5312C102.056 27.9453 100.819 27.1313 99.7773 26.0898C98.7357 25.0483 97.9154 23.811 97.3164 22.3789C96.7305 20.9468 96.4375 19.3774 96.4375 17.6719L96.4375 12.3203C96.4375 10.6274 96.7305 9.06494 97.3164 7.63281C97.9154 6.1875 98.7357 4.95068 99.7773 3.92188C100.819 2.88037 102.056 2.06641 103.488 1.48047C104.921 0.894531 106.477 0.601562 108.156 0.601562L115.031 0.601562C116.711 0.601562 118.26 0.894531 119.68 1.48047C121.112 2.06641 122.349 2.88037 123.391 3.92188C124.432 4.95068 125.246 6.1875 125.832 7.63281C126.418 9.06494 126.711 10.6274 126.711 12.3203L126.711 17.6719ZM121.633 12.3203C121.633 11.3179 121.47 10.4126 121.145 9.60547C120.832 8.78516 120.383 8.08838 119.797 7.51562C119.224 6.92969 118.527 6.48047 117.707 6.16797C116.9 5.84229 116.008 5.67969 115.031 5.67969L108.156 5.67969C107.167 5.67969 106.262 5.84229 105.441 6.16797C104.634 6.48047 103.938 6.92969 103.352 7.51562C102.766 8.08838 102.31 8.78516 101.984 9.60547C101.672 10.4126 101.516 11.3179 101.516 12.3203L101.516 17.6719C101.516 18.6743 101.672 19.5859 101.984 20.4062C102.31 21.2134 102.766 21.9102 103.352 22.4961C103.938 23.0688 104.634 23.5181 105.441 23.8438C106.262 24.1562 107.167 24.3125 108.156 24.3125L114.992 24.3125C115.982 24.3125 116.88 24.1562 117.688 23.8438C118.508 23.5181 119.211 23.0688 119.797 22.4961C120.383 21.9102 120.832 21.2134 121.145 20.4062C121.47 19.5859 121.633 18.6743 121.633 17.6719L121.633 12.3203Z" fill="#FFFFFF" fill-opacity="1.000000" fill-rule="nonzero"/>
		<path id="Vector" d="M136.848 12.4375L154.68 12.4375L154.68 0.992188L159.758 0.992188L159.758 29L154.68 29L154.68 17.5547L136.848 17.5547L136.848 29L131.77 29L131.77 0.992188L136.848 0.992188L136.848 12.4375Z" fill="#FFFFFF" fill-opacity="1.000000" fill-rule="nonzero"/>
		<path id="Vector" d="M195.109 17.6719C195.109 19.3774 194.816 20.9468 194.23 22.3789C193.645 23.811 192.831 25.0483 191.789 26.0898C190.747 27.1313 189.51 27.9453 188.078 28.5312C186.659 29.104 185.109 29.3906 183.43 29.3906L176.555 29.3906C174.875 29.3906 173.319 29.104 171.887 28.5312C170.454 27.9453 169.217 27.1313 168.176 26.0898C167.134 25.0483 166.314 23.811 165.715 22.3789C165.129 20.9468 164.836 19.3774 164.836 17.6719L164.836 12.3203C164.836 10.6274 165.129 9.06494 165.715 7.63281C166.314 6.1875 167.134 4.95068 168.176 3.92188C169.217 2.88037 170.454 2.06641 171.887 1.48047C173.319 0.894531 174.875 0.601562 176.555 0.601562L183.43 0.601562C185.109 0.601562 186.659 0.894531 188.078 1.48047C189.51 2.06641 190.747 2.88037 191.789 3.92188C192.831 4.95068 193.645 6.1875 194.23 7.63281C194.816 9.06494 195.109 10.6274 195.109 12.3203L195.109 17.6719ZM190.031 12.3203C190.031 11.3179 189.868 10.4126 189.543 9.60547C189.23 8.78516 188.781 8.08838 188.195 7.51562C187.622 6.92969 186.926 6.48047 186.105 6.16797C185.298 5.84229 184.406 5.67969 183.43 5.67969L176.555 5.67969C175.565 5.67969 174.66 5.84229 173.84 6.16797C173.033 6.48047 172.336 6.92969 171.75 7.51562C171.164 8.08838 170.708 8.78516 170.383 9.60547C170.07 10.4126 169.914 11.3179 169.914 12.3203L169.914 17.6719C169.914 18.6743 170.07 19.5859 170.383 20.4062C170.708 21.2134 171.164 21.9102 171.75 22.4961C172.336 23.0688 173.033 23.5181 173.84 23.8438C174.66 24.1562 175.565 24.3125 176.555 24.3125L183.391 24.3125C184.38 24.3125 185.279 24.1562 186.086 23.8438C186.906 23.5181 187.609 23.0688 188.195 22.4961C188.781 21.9102 189.23 21.2134 189.543 20.4062C189.868 19.5859 190.031 18.6743 190.031 17.6719L190.031 12.3203Z" fill="#FFFFFF" fill-opacity="1.000000" fill-rule="nonzero"/>
		<path id="Vector" d="M225.852 29L202.688 29C202.323 29 201.984 28.9351 201.672 28.8047C201.359 28.6743 201.086 28.4985 200.852 28.2773C200.63 28.043 200.454 27.7695 200.324 27.457C200.194 27.1445 200.129 26.8062 200.129 26.4414L200.129 0.992188L205.207 0.992188L205.207 23.9219L225.852 23.9219L225.852 29Z" fill="#FFFFFF" fill-opacity="1.000000" fill-rule="nonzero"/>
		<path id="Vector" d="M257.531 17.2812C257.531 18.9868 257.232 20.5562 256.633 21.9883C256.047 23.4204 255.233 24.6577 254.191 25.6992C253.15 26.728 251.913 27.5352 250.48 28.1211C249.048 28.707 247.492 29 245.812 29L232.102 29C231.737 29 231.398 28.9351 231.086 28.8047C230.773 28.6743 230.5 28.4985 230.266 28.2773C230.044 28.043 229.868 27.7695 229.738 27.457C229.608 27.1445 229.543 26.8062 229.543 26.4414L229.543 3.55078C229.543 3.19922 229.608 2.86719 229.738 2.55469C229.868 2.24219 230.044 1.96875 230.266 1.73438C230.5 1.5 230.773 1.31787 231.086 1.1875C231.398 1.05713 231.737 0.992188 232.102 0.992188L245.812 0.992188C247.492 0.992188 249.048 1.28516 250.48 1.87109C251.913 2.45703 253.15 3.271 254.191 4.3125C255.233 5.34131 256.047 6.57812 256.633 8.02344C257.232 9.45557 257.531 11.0181 257.531 12.7109L257.531 17.2812ZM252.453 12.7109C252.453 11.7212 252.29 10.8164 251.965 9.99609C251.652 9.17578 251.203 8.479 250.617 7.90625C250.031 7.32031 249.328 6.87109 248.508 6.55859C247.701 6.23291 246.802 6.07031 245.812 6.07031L234.621 6.07031L234.621 23.9219L245.812 23.9219C246.802 23.9219 247.701 23.7656 248.508 23.4531C249.328 23.1274 250.031 22.6782 250.617 22.1055C251.203 21.5195 251.652 20.8228 251.965 20.0156C252.29 19.1953 252.453 18.2837 252.453 17.2812L252.453 12.7109Z" fill="#FFFFFF" fill-opacity="1.000000" fill-rule="nonzero"/>
		<path id="Vector" d="M285.539 17.5547L269.504 17.5547L269.504 12.4375L285.539 12.4375L285.539 17.5547ZM287.824 29L269.504 29C268.801 29 268.033 28.8765 267.199 28.6289C266.366 28.3813 265.591 27.978 264.875 27.418C264.172 26.8452 263.579 26.1094 263.098 25.2109C262.629 24.2993 262.395 23.186 262.395 21.8711L262.395 3.55078C262.395 3.19922 262.46 2.86719 262.59 2.55469C262.72 2.24219 262.896 1.96875 263.117 1.73438C263.352 1.5 263.625 1.31787 263.938 1.1875C264.25 1.05713 264.589 0.992188 264.953 0.992188L287.824 0.992188L287.824 6.07031L267.473 6.07031L267.473 21.8711C267.473 22.5352 267.648 23.043 268 23.3945C268.352 23.7461 268.866 23.9219 269.543 23.9219L287.824 23.9219L287.824 29Z" fill="#FFFFFF" fill-opacity="1.000000" fill-rule="nonzero"/>
		<path id="Vector" d="M320.734 10.4062C320.734 11.5649 320.591 12.6001 320.305 13.5117C320.018 14.4233 319.628 15.2305 319.133 15.9336C318.651 16.6235 318.091 17.2163 317.453 17.7109C316.815 18.2056 316.145 18.6157 315.441 18.9414C314.751 19.2539 314.048 19.4819 313.332 19.625C312.629 19.7681 311.965 19.8398 311.34 19.8398L321.945 29L314.094 29L303.508 19.8398L299.855 19.8398L299.855 14.7617L311.34 14.7617C311.978 14.7095 312.557 14.5796 313.078 14.3711C313.612 14.1499 314.068 13.8569 314.445 13.4922C314.836 13.1274 315.135 12.6914 315.344 12.1836C315.552 11.6626 315.656 11.0703 315.656 10.4062L315.656 7.20312C315.656 6.9165 315.617 6.70166 315.539 6.55859C315.474 6.40234 315.383 6.2915 315.266 6.22656C315.161 6.14844 315.044 6.10303 314.914 6.08984C314.797 6.07666 314.686 6.07031 314.582 6.07031L297.824 6.07031L297.824 29L292.746 29L292.746 3.55078C292.746 3.19922 292.811 2.86719 292.941 2.55469C293.072 2.24219 293.247 1.96875 293.469 1.73438C293.703 1.5 293.977 1.31787 294.289 1.1875C294.602 1.05713 294.94 0.992188 295.305 0.992188L314.582 0.992188C315.715 0.992188 316.672 1.20068 317.453 1.61719C318.234 2.021 318.866 2.53516 319.348 3.16016C319.842 3.77197 320.194 4.43604 320.402 5.15234C320.624 5.86865 320.734 6.53906 320.734 7.16406L320.734 10.4062Z" fill="#FFFFFF" fill-opacity="1.000000" fill-rule="nonzero"/>
	</g>
</svg>
