<svg width="672.000000" height="672.000000" viewBox="0 0 672 672" fill="none" xmlns="http://www.w3.org/2000/svg" xmlns:xlink="http://www.w3.org/1999/xlink">
	<desc>
			Created with Pixso.
	</desc>
	<defs>
		<clipPath id="clip1_625">
			<rect id="IMAGE" width="672.000000" height="672.000000" fill="white" fill-opacity="0"/>
		</clipPath>
	</defs>
	<g clip-path="url(#clip1_625)">
		<path id="Vector" d="M336 385.5C308.662 385.5 286.5 363.338 286.5 336C286.5 308.662 308.662 286.5 336 286.5C363.338 286.5 385.5 308.662 385.5 336C385.5 363.338 363.338 385.5 336 385.5Z" stroke="#8DFD1B" stroke-opacity="1.000000" stroke-width="1.000000"/>
		<path id="Vector" d="M336.5 415.5C292.317 415.5 256.5 379.683 256.5 335.5C256.5 291.317 292.317 255.5 336.5 255.5C380.683 255.5 416.5 291.317 416.5 335.5C416.5 379.683 380.683 415.5 336.5 415.5Z" stroke="#8DFD1B" stroke-opacity="1.000000" stroke-width="1.000000"/>
		<path id="Vector" d="M335.605 464.71C264.302 464.71 206.5 406.908 206.5 335.605C206.5 264.302 264.302 206.5 335.605 206.5C406.908 206.5 464.71 264.302 464.71 335.605C464.71 406.908 406.908 464.71 335.605 464.71Z" stroke="#8DFD1B" stroke-opacity="0.750000" stroke-width="1.000000"/>
		<path id="Vector" d="M335.664 543.828C220.698 543.828 127.5 450.63 127.5 335.664C127.5 220.698 220.698 127.5 335.664 127.5C450.63 127.5 543.828 220.698 543.828 335.664C543.828 450.63 450.63 543.828 335.664 543.828Z" stroke="#8DFD1B" stroke-opacity="0.500000" stroke-width="1.000000"/>
		<path id="Vector" d="M335.951 671.402C150.687 671.402 0.5 521.215 0.5 335.951C0.5 150.687 150.687 0.5 335.951 0.5C521.215 0.5 671.402 150.687 671.402 335.951C671.402 521.215 521.215 671.402 335.951 671.402Z" stroke="#8DFD1B" stroke-opacity="0.250000" stroke-width="1.000000"/>
	</g>
</svg>
