<svg width="382.540527" height="55.315430" viewBox="0 0 382.541 55.3154" fill="none" xmlns="http://www.w3.org/2000/svg" xmlns:xlink="http://www.w3.org/1999/xlink">
	<desc>
			Created with Pixso.
	</desc>
	<defs/>
	<path id="Artists" d="M55.3154 55.3154L45.2861 55.3154L45.2861 41.7373L10.0293 41.7373L10.0293 55.3154L0 55.3154L0 27.6577C0 23.6203 0.694336 19.9043 2.08301 16.5098C3.47168 13.1152 5.40039 10.1965 7.86914 7.75342C10.3379 5.31038 13.2567 3.40739 16.6255 2.04443C19.9943 0.681477 23.6717 0 27.6577 0L50.2622 0C50.9565 0 51.6123 0.128582 52.2295 0.385742C52.8467 0.642902 53.3867 1.00293 53.8496 1.46582C54.3125 1.92871 54.6725 2.46875 54.9297 3.08594C55.1868 3.70312 55.3154 4.35889 55.3154 5.05322L55.3154 55.3154ZM10.0293 31.708L45.2861 31.708L45.2861 10.0293L27.6577 10.0293C27.3491 10.0293 26.6934 10.0807 25.6904 10.1836C24.7132 10.2607 23.5688 10.4793 22.2573 10.8394C20.9715 11.1994 19.6086 11.7523 18.1685 12.498C16.7284 13.2438 15.404 14.2725 14.1953 15.584C12.9867 16.8955 11.9837 18.5413 11.1865 20.5215C10.415 22.4759 10.0293 24.8547 10.0293 27.6577L10.0293 31.708ZM122.28 18.5928C122.28 20.8815 121.997 22.9259 121.432 24.7261C120.866 26.5262 120.094 28.1206 119.117 29.5093C118.166 30.8722 117.06 32.0423 115.8 33.0195C114.54 33.9967 113.215 34.8068 111.827 35.4497C110.464 36.0669 109.075 36.5169 107.661 36.7998C106.272 37.0827 104.96 37.2241 103.726 37.2241L124.672 55.3154L109.165 55.3154L88.2578 37.2241L81.0444 37.2241L81.0444 27.1948L103.726 27.1948C104.986 27.092 106.131 26.8348 107.159 26.4233C108.214 25.9862 109.114 25.4076 109.859 24.6875C110.631 23.9674 111.222 23.106 111.634 22.103C112.045 21.0744 112.251 19.9043 112.251 18.5928L112.251 12.2666C112.251 11.7008 112.174 11.2765 112.02 10.9937C111.891 10.6851 111.711 10.4665 111.479 10.3379C111.274 10.1836 111.042 10.0936 110.785 10.0679C110.554 10.0422 110.335 10.0293 110.129 10.0293L77.0327 10.0293L77.0327 55.3154L67.0034 55.3154L67.0034 5.05322C67.0034 4.35889 67.132 3.70312 67.3892 3.08594C67.6463 2.46875 67.9935 1.92871 68.4307 1.46582C68.8936 1.00293 69.4336 0.642902 70.0508 0.385742C70.668 0.128582 71.3366 0 72.0566 0L110.129 0C112.367 0 114.257 0.411457 115.8 1.23438C117.343 2.03157 118.59 3.04736 119.542 4.28174C120.519 5.4904 121.213 6.80192 121.625 8.21631C122.062 9.6307 122.28 10.9551 122.28 12.1895L122.28 18.5928ZM181.877 10.0293L159.774 10.0293L159.774 55.3154L149.745 55.3154L149.745 10.0293L127.604 10.0293L127.604 0L181.877 0L181.877 10.0293ZM199.39 55.3154L189.361 55.3154L189.361 0L199.39 0L199.39 55.3154ZM264.272 39.0371C264.272 41.0173 264.015 42.8045 263.5 44.3989C263.012 45.9676 262.356 47.3563 261.533 48.5649C260.71 49.7736 259.746 50.8022 258.64 51.6509C257.534 52.4995 256.39 53.1938 255.207 53.7339C254.024 54.2739 252.815 54.6725 251.581 54.9297C250.372 55.1869 249.228 55.3154 248.148 55.3154L209.458 55.3154L209.458 45.2861L248.148 45.2861C250.077 45.2861 251.568 44.7204 252.623 43.5889C253.703 42.4574 254.243 40.9401 254.243 39.0371C254.243 38.1113 254.101 37.2627 253.818 36.4912C253.535 35.7197 253.124 35.0511 252.584 34.4854C252.07 33.9196 251.427 33.4824 250.655 33.1738C249.91 32.8652 249.074 32.7109 248.148 32.7109L225.081 32.7109C223.46 32.7109 221.712 32.4281 219.834 31.8623C217.957 31.2708 216.208 30.3322 214.588 29.0464C212.994 27.7606 211.657 26.0762 210.577 23.9932C209.522 21.9102 208.995 19.3643 208.995 16.3555C208.995 13.3467 209.522 10.8136 210.577 8.75635C211.657 6.67334 212.994 4.98893 214.588 3.70312C216.208 2.3916 217.957 1.45296 219.834 0.887207C221.712 0.295734 223.46 0 225.081 0L259.219 0L259.219 10.0293L225.081 10.0293C223.178 10.0293 221.686 10.6079 220.606 11.7651C219.552 12.9224 219.024 14.4525 219.024 16.3555C219.024 18.2842 219.552 19.8143 220.606 20.9458C221.686 22.0516 223.178 22.6045 225.081 22.6045L248.148 22.6045L248.225 22.6045C249.305 22.6302 250.45 22.7845 251.658 23.0674C252.867 23.3245 254.063 23.736 255.246 24.3018C256.454 24.8675 257.599 25.5876 258.679 26.4619C259.759 27.3105 260.71 28.3392 261.533 29.5479C262.382 30.7565 263.05 32.1452 263.539 33.7139C264.028 35.2826 264.272 37.057 264.272 39.0371ZM321.979 10.0293L299.876 10.0293L299.876 55.3154L289.847 55.3154L289.847 10.0293L267.705 10.0293L267.705 0L321.979 0L321.979 10.0293ZM382.541 39.0371C382.541 41.0173 382.283 42.8045 381.769 44.3989C381.28 45.9676 380.625 47.3563 379.802 48.5649C378.979 49.7736 378.014 50.8022 376.909 51.6509C375.803 52.4995 374.659 53.1938 373.476 53.7339C372.293 54.2739 371.084 54.6725 369.85 54.9297C368.641 55.1869 367.497 55.3154 366.417 55.3154L327.727 55.3154L327.727 45.2861L366.417 45.2861C368.345 45.2861 369.837 44.7204 370.891 43.5889C371.971 42.4574 372.511 40.9401 372.511 39.0371C372.511 38.1113 372.37 37.2627 372.087 36.4912C371.804 35.7197 371.393 35.0511 370.853 34.4854C370.338 33.9196 369.695 33.4824 368.924 33.1738C368.178 32.8652 367.342 32.7109 366.417 32.7109L343.349 32.7109C341.729 32.7109 339.98 32.4281 338.103 31.8623C336.226 31.2708 334.477 30.3322 332.857 29.0464C331.263 27.7606 329.925 26.0762 328.845 23.9932C327.791 21.9102 327.264 19.3643 327.264 16.3555C327.264 13.3467 327.791 10.8136 328.845 8.75635C329.925 6.67334 331.263 4.98893 332.857 3.70312C334.477 2.3916 336.226 1.45296 338.103 0.887207C339.98 0.295734 341.729 0 343.349 0L377.487 0L377.487 10.0293L343.349 10.0293C341.446 10.0293 339.955 10.6079 338.875 11.7651C337.82 12.9224 337.293 14.4525 337.293 16.3555C337.293 18.2842 337.82 19.8143 338.875 20.9458C339.955 22.0516 341.446 22.6045 343.349 22.6045L366.417 22.6045L366.494 22.6045C367.574 22.6302 368.718 22.7845 369.927 23.0674C371.135 23.3245 372.331 23.736 373.514 24.3018C374.723 24.8675 375.867 25.5876 376.947 26.4619C378.027 27.3105 378.979 28.3392 379.802 29.5479C380.65 30.7565 381.319 32.1452 381.808 33.7139C382.296 35.2826 382.541 37.057 382.541 39.0371Z" fill="#FFFFFF" fill-opacity="1.000000" fill-rule="evenodd"/>
</svg>
