<svg width="251.735352" height="56.876953" viewBox="0 0 251.735 56.877" fill="none" xmlns="http://www.w3.org/2000/svg" xmlns:xlink="http://www.w3.org/1999/xlink">
	<desc>
			Created with Pixso.
	</desc>
	<defs/>
	<path id="team" d="M54.2739 10.8196L32.1709 10.8196L32.1709 56.1057L22.1416 56.1057L22.1416 10.8196L0 10.8196L0 0.790283L54.2739 0.790283L54.2739 10.8196ZM107.159 33.5012L75.4897 33.5012L75.4897 23.3948L107.159 23.3948L107.159 33.5012ZM111.672 56.1057L75.4897 56.1057C74.1011 56.1057 72.5838 55.8614 70.938 55.3728C69.2922 54.8842 67.762 54.087 66.3477 52.9812C64.959 51.8497 63.7889 50.3967 62.8374 48.6223C61.9116 46.8222 61.4487 44.6235 61.4487 42.0261L61.4487 5.84351C61.4487 5.14917 61.5773 4.49341 61.8345 3.87622C62.0916 3.25903 62.4388 2.71899 62.876 2.2561C63.3389 1.79321 63.8789 1.43319 64.4961 1.17603C65.1133 0.918865 65.7819 0.790283 66.502 0.790283L111.672 0.790283L111.672 10.8196L71.478 10.8196L71.478 42.0261C71.478 43.3376 71.8252 44.3406 72.5195 45.0349C73.2139 45.7292 74.2297 46.0764 75.5669 46.0764L111.672 46.0764L111.672 56.1057ZM175.667 56.1057L165.638 56.1057L165.638 42.5276L130.381 42.5276L130.381 56.1057L120.352 56.1057L120.352 28.448C120.352 24.4106 121.046 20.6946 122.435 17.3C123.823 13.9055 125.752 10.9867 128.221 8.5437C130.689 6.10067 133.608 4.19767 136.977 2.83472C140.346 1.47176 144.023 0.790283 148.009 0.790283L170.614 0.790283C171.308 0.790283 171.964 0.918865 172.581 1.17603C173.198 1.43319 173.738 1.79321 174.201 2.2561C174.664 2.71899 175.024 3.25903 175.281 3.87622C175.538 4.49341 175.667 5.14917 175.667 5.84351L175.667 56.1057ZM130.381 32.4983L165.638 32.4983L165.638 10.8196L148.009 10.8196C147.701 10.8196 147.045 10.871 146.042 10.9739C145.065 11.051 143.92 11.2696 142.609 11.6296C141.323 11.9897 139.96 12.5426 138.52 13.2883C137.08 14.0341 135.756 15.0627 134.547 16.3743C133.338 17.6858 132.335 19.3316 131.538 21.3118C130.767 23.2662 130.381 25.6449 130.381 28.448L130.381 32.4983ZM251.735 56.1057L241.629 56.1057L241.629 23.1633L223.846 54.447C223.409 55.2442 222.792 55.8485 221.995 56.26C221.223 56.6715 220.387 56.8772 219.487 56.8772C218.613 56.8772 217.79 56.6715 217.019 56.26C216.273 55.8485 215.681 55.2442 215.244 54.447L197.384 23.1633L197.384 56.1057L187.355 56.1057L187.355 5.07202C187.355 3.91479 187.689 2.88615 188.358 1.98608C189.052 1.08602 189.952 0.481689 191.058 0.173096C191.598 0.0445137 192.138 0.00593948 192.678 0.057373C193.218 0.0830879 193.733 0.198811 194.221 0.404541C194.736 0.584553 195.198 0.854572 195.61 1.2146C196.021 1.54891 196.368 1.96037 196.651 2.44897L219.487 42.1418L242.323 2.44897C242.915 1.47176 243.725 0.777424 244.753 0.365967C245.808 -0.0454903 246.901 -0.109783 248.032 0.173096C249.112 0.481689 250 1.08602 250.694 1.98608C251.388 2.88615 251.735 3.91479 251.735 5.07202L251.735 56.1057Z" fill="#FFFFFF" fill-opacity="1.000000" fill-rule="evenodd"/>
</svg>
